<mxfile host="app.diagrams.net" modified="2021-09-23T03:09:51.673Z" agent="5.0 (Windows NT 10.0; Win64; x64) AppleWebKit/537.36 (KHTML, like Gecko) Chrome/93.0.4577.82 Safari/537.36" etag="bU75FExucfNWk0BX_oVj" version="15.2.7" type="github">
  <diagram id="1hgn0rKJHxRaswaf_29a" name="Page-1">
    <mxGraphModel dx="1187" dy="1953" grid="1" gridSize="10" guides="1" tooltips="1" connect="1" arrows="1" fold="1" page="1" pageScale="1" pageWidth="827" pageHeight="1169" math="0" shadow="0">
      <root>
        <mxCell id="0" />
        <mxCell id="1" parent="0" />
        <mxCell id="gDIUBnWHJ22sIrQ11j0S-2" style="edgeStyle=orthogonalEdgeStyle;rounded=0;orthogonalLoop=1;jettySize=auto;html=1;exitX=1;exitY=0.5;exitDx=0;exitDy=0;" edge="1" parent="1" source="gDIUBnWHJ22sIrQ11j0S-1" target="gDIUBnWHJ22sIrQ11j0S-3">
          <mxGeometry relative="1" as="geometry">
            <mxPoint x="110" y="145.1428571428571" as="targetPoint" />
          </mxGeometry>
        </mxCell>
        <mxCell id="gDIUBnWHJ22sIrQ11j0S-1" value="开始" style="ellipse;whiteSpace=wrap;html=1;fillColor=#f8cecc;strokeColor=#b85450;" vertex="1" parent="1">
          <mxGeometry x="20" y="120" width="60" height="50" as="geometry" />
        </mxCell>
        <mxCell id="gDIUBnWHJ22sIrQ11j0S-7" style="edgeStyle=orthogonalEdgeStyle;rounded=0;orthogonalLoop=1;jettySize=auto;html=1;exitX=1;exitY=0.5;exitDx=0;exitDy=0;" edge="1" parent="1" source="gDIUBnWHJ22sIrQ11j0S-3">
          <mxGeometry relative="1" as="geometry">
            <mxPoint x="230" y="145.1428571428571" as="targetPoint" />
          </mxGeometry>
        </mxCell>
        <mxCell id="gDIUBnWHJ22sIrQ11j0S-3" value="蓝绿发布" style="rounded=0;whiteSpace=wrap;html=1;textOpacity=80;fillColor=#d5e8d4;strokeColor=#82b366;" vertex="1" parent="1">
          <mxGeometry x="110" y="130" width="70" height="30" as="geometry" />
        </mxCell>
        <mxCell id="gDIUBnWHJ22sIrQ11j0S-17" style="edgeStyle=orthogonalEdgeStyle;rounded=0;orthogonalLoop=1;jettySize=auto;html=1;exitX=1;exitY=0.5;exitDx=0;exitDy=0;entryX=-0.001;entryY=0.077;entryDx=0;entryDy=0;entryPerimeter=0;" edge="1" parent="1" source="gDIUBnWHJ22sIrQ11j0S-5">
          <mxGeometry relative="1" as="geometry">
            <mxPoint x="303.8699999999999" y="80.00199999999995" as="targetPoint" />
            <Array as="points">
              <mxPoint x="284" y="145" />
              <mxPoint x="284" y="80" />
            </Array>
          </mxGeometry>
        </mxCell>
        <mxCell id="gDIUBnWHJ22sIrQ11j0S-18" style="edgeStyle=orthogonalEdgeStyle;rounded=0;orthogonalLoop=1;jettySize=auto;html=1;exitX=1;exitY=0.5;exitDx=0;exitDy=0;entryX=-0.017;entryY=0.154;entryDx=0;entryDy=0;entryPerimeter=0;" edge="1" parent="1" source="gDIUBnWHJ22sIrQ11j0S-5" target="gDIUBnWHJ22sIrQ11j0S-14">
          <mxGeometry relative="1" as="geometry">
            <Array as="points">
              <mxPoint x="284" y="145" />
              <mxPoint x="284" y="232" />
            </Array>
          </mxGeometry>
        </mxCell>
        <mxCell id="gDIUBnWHJ22sIrQ11j0S-5" value="发布中" style="rounded=0;whiteSpace=wrap;html=1;textOpacity=80;fillColor=#d5e8d4;strokeColor=#82b366;" vertex="1" parent="1">
          <mxGeometry x="200" y="130" width="70" height="30" as="geometry" />
        </mxCell>
        <mxCell id="gDIUBnWHJ22sIrQ11j0S-34" style="edgeStyle=orthogonalEdgeStyle;rounded=0;orthogonalLoop=1;jettySize=auto;html=1;exitX=1;exitY=0.5;exitDx=0;exitDy=0;" edge="1" parent="1" source="gDIUBnWHJ22sIrQ11j0S-6">
          <mxGeometry relative="1" as="geometry">
            <mxPoint x="590" y="145" as="targetPoint" />
          </mxGeometry>
        </mxCell>
        <mxCell id="gDIUBnWHJ22sIrQ11j0S-6" value="确认发布" style="rounded=0;whiteSpace=wrap;html=1;textOpacity=80;fillColor=#d5e8d4;strokeColor=#82b366;" vertex="1" parent="1">
          <mxGeometry x="460" y="130" width="70" height="30" as="geometry" />
        </mxCell>
        <mxCell id="gDIUBnWHJ22sIrQ11j0S-12" value="新deployment" style="swimlane;fontStyle=0;childLayout=stackLayout;horizontal=1;startSize=26;fillColor=#dae8fc;horizontalStack=0;resizeParent=1;resizeParentMax=0;resizeLast=0;collapsible=1;marginBottom=0;strokeColor=#6c8ebf;" vertex="1" parent="1">
          <mxGeometry x="304" y="176" width="136" height="102" as="geometry" />
        </mxCell>
        <mxCell id="gDIUBnWHJ22sIrQ11j0S-13" value="matedate： app=nginx" style="text;strokeColor=none;fillColor=none;align=left;verticalAlign=top;spacingLeft=4;spacingRight=4;overflow=hidden;rotatable=0;points=[[0,0.5],[1,0.5]];portConstraint=eastwest;" vertex="1" parent="gDIUBnWHJ22sIrQ11j0S-12">
          <mxGeometry y="26" width="136" height="24" as="geometry" />
        </mxCell>
        <mxCell id="gDIUBnWHJ22sIrQ11j0S-14" value="matedate： bg=false" style="text;strokeColor=none;fillColor=none;align=left;verticalAlign=top;spacingLeft=4;spacingRight=4;overflow=hidden;rotatable=0;points=[[0,0.5],[1,0.5]];portConstraint=eastwest;" vertex="1" parent="gDIUBnWHJ22sIrQ11j0S-12">
          <mxGeometry y="50" width="136" height="26" as="geometry" />
        </mxCell>
        <mxCell id="gDIUBnWHJ22sIrQ11j0S-15" value="pod label app=nginx-V1" style="text;strokeColor=none;fillColor=none;align=left;verticalAlign=top;spacingLeft=4;spacingRight=4;overflow=hidden;rotatable=0;points=[[0,0.5],[1,0.5]];portConstraint=eastwest;" vertex="1" parent="gDIUBnWHJ22sIrQ11j0S-12">
          <mxGeometry y="76" width="136" height="26" as="geometry" />
        </mxCell>
        <mxCell id="gDIUBnWHJ22sIrQ11j0S-19" value="service" style="swimlane;fontStyle=0;childLayout=stackLayout;horizontal=1;startSize=26;fillColor=#f8cecc;horizontalStack=0;resizeParent=1;resizeParentMax=0;resizeLast=0;collapsible=1;marginBottom=0;strokeColor=#b85450;" vertex="1" parent="1">
          <mxGeometry x="165" y="-120" width="140" height="78" as="geometry" />
        </mxCell>
        <mxCell id="gDIUBnWHJ22sIrQ11j0S-20" value="matedate ：app=nginx" style="text;strokeColor=none;fillColor=none;align=left;verticalAlign=top;spacingLeft=4;spacingRight=4;overflow=hidden;rotatable=0;points=[[0,0.5],[1,0.5]];portConstraint=eastwest;" vertex="1" parent="gDIUBnWHJ22sIrQ11j0S-19">
          <mxGeometry y="26" width="140" height="26" as="geometry" />
        </mxCell>
        <mxCell id="gDIUBnWHJ22sIrQ11j0S-21" value="selector ：app=nginx" style="text;strokeColor=none;fillColor=none;align=left;verticalAlign=top;spacingLeft=4;spacingRight=4;overflow=hidden;rotatable=0;points=[[0,0.5],[1,0.5]];portConstraint=eastwest;" vertex="1" parent="gDIUBnWHJ22sIrQ11j0S-19">
          <mxGeometry y="52" width="140" height="26" as="geometry" />
        </mxCell>
        <mxCell id="gDIUBnWHJ22sIrQ11j0S-25" value="旧deployment" style="swimlane;fontStyle=0;childLayout=stackLayout;horizontal=1;startSize=26;fillColor=#fff2cc;horizontalStack=0;resizeParent=1;resizeParentMax=0;resizeLast=0;collapsible=1;marginBottom=0;strokeColor=#d6b656;" vertex="1" parent="1">
          <mxGeometry x="300" y="20" width="136" height="102" as="geometry" />
        </mxCell>
        <mxCell id="gDIUBnWHJ22sIrQ11j0S-26" value="matedate ：app=nginx" style="text;strokeColor=none;fillColor=none;align=left;verticalAlign=top;spacingLeft=4;spacingRight=4;overflow=hidden;rotatable=0;points=[[0,0.5],[1,0.5]];portConstraint=eastwest;" vertex="1" parent="gDIUBnWHJ22sIrQ11j0S-25">
          <mxGeometry y="26" width="136" height="24" as="geometry" />
        </mxCell>
        <mxCell id="gDIUBnWHJ22sIrQ11j0S-27" value="matedate ：bg=true" style="text;strokeColor=none;fillColor=none;align=left;verticalAlign=top;spacingLeft=4;spacingRight=4;overflow=hidden;rotatable=0;points=[[0,0.5],[1,0.5]];portConstraint=eastwest;" vertex="1" parent="gDIUBnWHJ22sIrQ11j0S-25">
          <mxGeometry y="50" width="136" height="26" as="geometry" />
        </mxCell>
        <mxCell id="gDIUBnWHJ22sIrQ11j0S-28" value="pod label app=nginx" style="text;strokeColor=none;fillColor=none;align=left;verticalAlign=top;spacingLeft=4;spacingRight=4;overflow=hidden;rotatable=0;points=[[0,0.5],[1,0.5]];portConstraint=eastwest;" vertex="1" parent="gDIUBnWHJ22sIrQ11j0S-25">
          <mxGeometry y="76" width="136" height="26" as="geometry" />
        </mxCell>
        <mxCell id="gDIUBnWHJ22sIrQ11j0S-30" value="" style="edgeStyle=elbowEdgeStyle;elbow=horizontal;endArrow=classic;html=1;exitX=1.007;exitY=-0.038;exitDx=0;exitDy=0;exitPerimeter=0;entryX=0.397;entryY=-0.029;entryDx=0;entryDy=0;entryPerimeter=0;" edge="1" parent="1" source="gDIUBnWHJ22sIrQ11j0S-21" target="gDIUBnWHJ22sIrQ11j0S-25">
          <mxGeometry width="50" height="50" relative="1" as="geometry">
            <mxPoint x="410" y="-40" as="sourcePoint" />
            <mxPoint x="460" y="-90" as="targetPoint" />
            <Array as="points">
              <mxPoint x="340" y="17" />
            </Array>
          </mxGeometry>
        </mxCell>
        <mxCell id="gDIUBnWHJ22sIrQ11j0S-32" value="服务名 nginx" style="text;html=1;strokeColor=#9673a6;fillColor=#e1d5e7;align=center;verticalAlign=middle;whiteSpace=wrap;rounded=0;" vertex="1" parent="1">
          <mxGeometry x="450" y="61" width="90" height="20" as="geometry" />
        </mxCell>
        <mxCell id="gDIUBnWHJ22sIrQ11j0S-33" value="服务名 nginx-v1" style="text;html=1;strokeColor=#9673a6;fillColor=#e1d5e7;align=center;verticalAlign=middle;whiteSpace=wrap;rounded=0;" vertex="1" parent="1">
          <mxGeometry x="450" y="217" width="90" height="20" as="geometry" />
        </mxCell>
        <mxCell id="gDIUBnWHJ22sIrQ11j0S-35" value="deployment" style="swimlane;fontStyle=0;childLayout=stackLayout;horizontal=1;startSize=26;fillColor=#fff2cc;horizontalStack=0;resizeParent=1;resizeParentMax=0;resizeLast=0;collapsible=1;marginBottom=0;strokeColor=#d6b656;" vertex="1" parent="1">
          <mxGeometry x="590" y="90" width="136" height="102" as="geometry" />
        </mxCell>
        <mxCell id="gDIUBnWHJ22sIrQ11j0S-36" value="matedate： app=nginx" style="text;strokeColor=none;fillColor=none;align=left;verticalAlign=top;spacingLeft=4;spacingRight=4;overflow=hidden;rotatable=0;points=[[0,0.5],[1,0.5]];portConstraint=eastwest;" vertex="1" parent="gDIUBnWHJ22sIrQ11j0S-35">
          <mxGeometry y="26" width="136" height="24" as="geometry" />
        </mxCell>
        <mxCell id="gDIUBnWHJ22sIrQ11j0S-37" value="matedate： bg=true" style="text;strokeColor=none;fillColor=none;align=left;verticalAlign=top;spacingLeft=4;spacingRight=4;overflow=hidden;rotatable=0;points=[[0,0.5],[1,0.5]];portConstraint=eastwest;" vertex="1" parent="gDIUBnWHJ22sIrQ11j0S-35">
          <mxGeometry y="50" width="136" height="26" as="geometry" />
        </mxCell>
        <mxCell id="gDIUBnWHJ22sIrQ11j0S-38" value="pod label app=nginx-V1" style="text;strokeColor=none;fillColor=none;align=left;verticalAlign=top;spacingLeft=4;spacingRight=4;overflow=hidden;rotatable=0;points=[[0,0.5],[1,0.5]];portConstraint=eastwest;" vertex="1" parent="gDIUBnWHJ22sIrQ11j0S-35">
          <mxGeometry y="76" width="136" height="26" as="geometry" />
        </mxCell>
        <mxCell id="gDIUBnWHJ22sIrQ11j0S-39" value="service" style="swimlane;fontStyle=0;childLayout=stackLayout;horizontal=1;startSize=26;fillColor=#f8cecc;horizontalStack=0;resizeParent=1;resizeParentMax=0;resizeLast=0;collapsible=1;marginBottom=0;strokeColor=#b85450;" vertex="1" parent="1">
          <mxGeometry x="570" y="-70" width="140" height="78" as="geometry" />
        </mxCell>
        <mxCell id="gDIUBnWHJ22sIrQ11j0S-40" value="matedate ：app=nginx" style="text;strokeColor=none;fillColor=none;align=left;verticalAlign=top;spacingLeft=4;spacingRight=4;overflow=hidden;rotatable=0;points=[[0,0.5],[1,0.5]];portConstraint=eastwest;" vertex="1" parent="gDIUBnWHJ22sIrQ11j0S-39">
          <mxGeometry y="26" width="140" height="26" as="geometry" />
        </mxCell>
        <mxCell id="gDIUBnWHJ22sIrQ11j0S-41" value="selector ：app=nginx-V1" style="text;strokeColor=none;fillColor=none;align=left;verticalAlign=top;spacingLeft=4;spacingRight=4;overflow=hidden;rotatable=0;points=[[0,0.5],[1,0.5]];portConstraint=eastwest;" vertex="1" parent="gDIUBnWHJ22sIrQ11j0S-39">
          <mxGeometry y="52" width="140" height="26" as="geometry" />
        </mxCell>
        <mxCell id="gDIUBnWHJ22sIrQ11j0S-42" value="" style="edgeStyle=elbowEdgeStyle;elbow=horizontal;endArrow=classic;html=1;entryX=0.5;entryY=0;entryDx=0;entryDy=0;" edge="1" parent="1" target="gDIUBnWHJ22sIrQ11j0S-35">
          <mxGeometry width="50" height="50" relative="1" as="geometry">
            <mxPoint x="646" y="10" as="sourcePoint" />
            <mxPoint x="580.002" y="90.00199999999992" as="targetPoint" />
            <Array as="points">
              <mxPoint x="646" y="30" />
              <mxPoint x="646.01" y="32.96" />
            </Array>
          </mxGeometry>
        </mxCell>
        <mxCell id="gDIUBnWHJ22sIrQ11j0S-43" value="结束" style="ellipse;whiteSpace=wrap;html=1;fillColor=#f8cecc;strokeColor=#b85450;" vertex="1" parent="1">
          <mxGeometry x="860" y="126" width="60" height="50" as="geometry" />
        </mxCell>
        <mxCell id="gDIUBnWHJ22sIrQ11j0S-45" value="" style="endArrow=classic;html=1;entryX=0;entryY=0.5;entryDx=0;entryDy=0;" edge="1" parent="1" target="gDIUBnWHJ22sIrQ11j0S-43">
          <mxGeometry width="50" height="50" relative="1" as="geometry">
            <mxPoint x="726" y="150" as="sourcePoint" />
            <mxPoint x="776" y="100" as="targetPoint" />
          </mxGeometry>
        </mxCell>
        <mxCell id="gDIUBnWHJ22sIrQ11j0S-46" value="服务名 nginx-v1" style="text;html=1;strokeColor=#9673a6;fillColor=#e1d5e7;align=center;verticalAlign=middle;whiteSpace=wrap;rounded=0;" vertex="1" parent="1">
          <mxGeometry x="737" y="90" width="90" height="20" as="geometry" />
        </mxCell>
      </root>
    </mxGraphModel>
  </diagram>
</mxfile>
